<?xml version="1.0" encoding="utf-8"?>
<!-- Generator: Adobe Illustrator 18.0.0, SVG Export Plug-In . SVG Version: 6.00 Build 0)  -->
<!DOCTYPE svg PUBLIC "-//W3C//DTD SVG 1.1//EN" "http://www.w3.org/Graphics/SVG/1.1/DTD/svg11.dtd">
<svg version="1.1" xmlns="http://www.w3.org/2000/svg" xmlns:xlink="http://www.w3.org/1999/xlink" x="0px" y="0px"
	 viewBox="0 0 595.3 595.3" enable-background="new 0 0 595.3 595.3" xml:space="preserve">
<g id="Capa_1">
	<path opacity="0.6" fill="#53B583" d="M313,317.6c0.9-0.8,1.4-1.3,1.8-1.7c8.4-9,18.8-14.4,30.9-16.1c20.3-2.9,40.2,6,51.5,23.2
		c8.3,12.7,10,26.6,7.4,41.2c-3,17.1-11.5,31.3-22.9,44.1c-12.9,14.5-28.6,25.5-44.4,36.6c-7.6,5.3-15,10.7-22.5,16.2
		c-0.9,0.7-1.6,1-2.7,0.2c-12.6-9.1-25.3-18-37.9-27.2c-15-10.9-28.7-23-39.2-38.5c-8.9-13.2-13.9-27.6-14.1-43.7
		c-0.2-25,17.9-47.4,42.3-51.7c18.6-3.3,34.9,1.8,48.3,15.3C312,316.1,312.4,316.9,313,317.6z"/>
	
		<polyline fill="none" stroke="#322D33" stroke-width="27.757" stroke-linecap="round" stroke-linejoin="round" stroke-miterlimit="10" points="
		52.2,253.4 304.3,44.1 555.3,253.4 	"/>
	
		<polyline fill="none" stroke="#322D33" stroke-width="27.757" stroke-linecap="round" stroke-linejoin="round" stroke-miterlimit="10" points="
		494,266.2 494,549.5 303.7,549.5 113.5,549.5 113.5,266.2 	"/>
	
		<polygon fill="none" stroke="#322D33" stroke-width="19.1012" stroke-linecap="round" stroke-linejoin="round" stroke-miterlimit="10" points="
		406,134 406,40.6 483.6,40.6 483.6,188.4 	"/>
	<path fill="#322D33" d="M303.4,310.3c1-0.9,1.6-1.4,2.1-1.9c9.4-10,21-16.1,34.5-18c22.7-3.3,44.9,6.7,57.5,25.9
		c9.3,14.2,11.1,29.7,8.2,46c-3.4,19.1-12.9,35-25.6,49.2c-14.4,16.2-32,28.5-49.6,40.9c-8.4,5.9-16.8,12-25.1,18.1
		c-1,0.8-1.7,1.1-3,0.2c-14.1-10.2-28.3-20.1-42.3-30.3c-16.7-12.1-32.1-25.7-43.8-43c-9.9-14.7-15.6-30.9-15.7-48.7
		c-0.3-27.9,20-52.9,47.2-57.7c20.8-3.7,39,2,53.9,17.1C302.3,308.6,302.7,309.4,303.4,310.3z M303.7,327.2c-2-2.5-3.8-4.9-5.6-7.3
		c-11.6-14.9-26.9-21.6-45.6-19c-18.4,2.6-31.3,13-38.2,30.3c-5.1,12.8-3.7,25.8,0.2,38.7c5.1,16.7,15.4,30,27.6,41.9
		c18.5,18.2,40.9,31.4,61.7,46.7c1.3-1,2.6-1.9,3.9-2.9c14.1-10,28.3-19.8,42.1-30.2c13.9-10.5,26.3-22.7,35.3-37.9
		c8.5-14.2,13-29.6,10.8-46.3c-2.8-21.3-20.3-38.9-43.6-40.8c-15.3-1.2-28.6,3.9-39.2,15.1C309.7,319,307,323,303.7,327.2z"/>
</g>
<g id="Capa_2">
</g>
</svg>
